# xmcd
#
# Track frame offsets: 
#        150
#        9594
#        43042
#        54678
#        69574
#        86665
#        96985
#        108476
#        122451
#        133449
#        146805
#
# Disc length: 2175 seconds
#
# Revision: 0
# Processed by: cddbd v1.5.2PL0 Copyright (c) Steve Scherf et al.
# Submitted via: ExactAudioCopy v0.95b3
#
DISCID=a3087d0b
DTITLE=Crazy Elephant - Crazy Elephant - 320K
DYEAR=1900
DGENRE=
TTITLE0=Gimme Gimme Good Lovin'
TTITLE1=Respect
TTITLE2=Pam
TTITLE3=Come To The Farm
TTITLE4=Somewhere
TTITLE5=My Baby (Honey Pie)
TTITLE6=Sunshine, Red Vine
TTITLE7=(Heartless) Heritie Gertie
TTITLE8=Love Strike
TTITLE9=Try This When You're Ready
TTITLE10=Higuer And Higuer
EXTD=
EXTT0=
EXTT1=
EXTT2=
EXTT3=
EXTT4=
EXTT5=
EXTT6=
EXTT7=
EXTT8=
EXTT9=
EXTT10=
PLAYORDER=
